<svg xmlns="http://www.w3.org/2000/svg" width="1366" height="2218.905" viewBox="0 0 1366 2218.905">
  <g id="Card_Bg" transform="translate(0 -1908.521)">
    <path id="Union_38" data-name="Union 38" d="M0,2124.765V52A52,52,0,0,1,52,0H1314a52,52,0,0,1,52,52V2124.765a52,52,0,0,1-52,52H52A52,52,0,0,1,0,2124.765Z" transform="translate(0 1908.521)" fill="#fdbfeb"/>
    <path id="Union_37" data-name="Union 37" d="M0,2124.764V52A52,52,0,0,1,52,0H1314a52,52,0,0,1,52,52V2124.764a52,52,0,0,1-52,52H52A52,52,0,0,1,0,2124.764Z" transform="translate(0 1928.914)" fill="#f8f8e7"/>
    <path id="Union_33" data-name="Union 33" d="M0,2124.765V52A52,52,0,0,1,52,0H1314a52,52,0,0,1,52,52V2124.765a52,52,0,0,1-52,52H52A52,52,0,0,1,0,2124.765Z" transform="translate(0 1950.661)" fill="#c5f0fc"/>
  </g>
</svg>
