<svg xmlns="http://www.w3.org/2000/svg" xmlns:xlink="http://www.w3.org/1999/xlink" width="175.898" height="132.771" viewBox="0 0 175.898 132.771">
  <defs>
    <linearGradient id="linear-gradient" x1="0.5" x2="0.5" y2="1" gradientUnits="objectBoundingBox">
      <stop offset="0" stop-color="#cea6f8"/>
      <stop offset="1" stop-color="#f894c9"/>
    </linearGradient>
  </defs>
  <g id="Group_46896" data-name="Group 46896" transform="translate(-201.591 -1707.567)">
    <path id="Path_18209" data-name="Path 18209" d="M100.725,98.289s-6.26,9.286-13.017,15.1a64.987,64.987,0,0,1-12.852,8.724s3.975-5.988,4.5-9.471a55.554,55.554,0,0,0,0-9.745s-13.911,3.811-23.451,3.722-19.973-3.456-23.65-5.672-6.757-6.469-7.452-9.482S26.6,82.514,26.6,82.514,12.984,79.383,7.684,74.656,0,64.022,0,58.823,3.743,41.394,11.295,36.786s9.241-4.342,10.334-4.431,4.968,0,4.968,0-1.689-6.558.5-11.344S39.813,4,52.433,1.515,78.268-.435,85.621,3.376s15.2,11.432,15.2,11.432a36.551,36.551,0,0,1,22.06-1.662c12.322,2.9,26.6,8.1,36.056,18.382s7.6,19.792,6.738,22.333-2.65,9.335-8.281,11.048a24.331,24.331,0,0,1,6.128,12.466c1.093,7.444-.894,20.028-15.7,24.016s-28.319,2.038-31.2,1.329-15.9-4.431-15.9-4.431" transform="matrix(0.999, 0.035, -0.035, 0.999, 211.169, 1712.492)" fill="url(#linear-gradient)"/>
    <path id="Path_18207" data-name="Path 18207" d="M76.354,126.99c8.31-4.46,14.936-10.957,21.34-17.368,1.569-1.445-.827-3.581-2.432-2.169-4.652,4.586-9.233,9.29-14.7,13.131a30.553,30.553,0,0,0,3.179-13.3c.022-1.577-.245-3.971-2.537-4.014a11.469,11.469,0,0,0-2.4.731,70.472,70.472,0,0,1-32.073,1.7c-7.009-1.783-16.4-5.246-18.271-12.206-.719-3.144,1.049-6.114,2.7-8.767.413-2.211-2.1-1.99-3.734-2.321a49.7,49.7,0,0,1-6.007-1.431c-4.436-1.509-8.76-3.56-11.913-6.8C4.673,69.275,2.2,63.093,4.053,56.63,5.823,49.784,9.1,42.6,15.827,38.5a20.246,20.246,0,0,1,8.746-2.836c1.762-.286,4.869,1.023,5.122-1.4C28.674,26.71,32.632,18.446,38.914,13.4a53.7,53.7,0,0,1,26.5-10.285c9.955-.384,22.931,3.289,30.38,9.2a54.127,54.127,0,0,1,5.676,5.363,2.419,2.419,0,0,0,2.64.207,39.425,39.425,0,0,1,13.457-1.606,76.428,76.428,0,0,1,24.253,5.89c8.482,3.937,17.489,10.084,22.092,17.6,4.184,7.958,4.9,20.232-4.733,25.23-2.473-.628-3.388,2.675-.862,3.134,2.626,2.723,4.837,5.874,5.562,9.455a20.089,20.089,0,0,1-2.966,15.821c-6.142,8.077-17.659,10.523-27.98,11.07a75.44,75.44,0,0,1-12.29-.764c-1.266-.232-2.526-.5-3.788-.757a2.441,2.441,0,0,0-1.8.088c-1.939,1.87,3.778,2.615,5,3.037a64.6,64.6,0,0,0,10.815,1.059c13.071.178,28.613-3.477,34.563-14.918a22.267,22.267,0,0,0-3.578-25.06c7.085-4.145,9.245-12.255,8.124-19.381-1-9.674-7.621-16.452-15.858-22.225a66.5,66.5,0,0,0-24.853-10.638c-8.492-1.994-17.53-2.592-25.959-.037A42.44,42.44,0,0,0,82.83,2.556,56.1,56.1,0,0,0,67.466,0C57.238.138,47.348,4.1,39.113,9.313A28.069,28.069,0,0,0,26.044,32.581C13.57,32.52,5.4,41.766,2.012,51.61.443,55.992-.671,60.733.464,65.3,3.449,76.567,14.508,83.49,26.821,85.418c-6.713,11.476,5.148,19.35,16.305,22.534,11.4,3.191,25.911,2.191,37.16-1.17a27.492,27.492,0,0,1-2.964,12.769A40.468,40.468,0,0,1,74.2,124.8c-.869,1.211.706,2.776,2.154,2.187" transform="translate(201.59 1707.567)" fill="#6868fc"/>
    <text id="あーしの秘密を_紹介してます_" data-name="あーしの秘密を
紹介してます！" transform="matrix(0.998, 0.07, -0.07, 0.998, 294.349, 1766.21)" fill="#6868fc" font-size="16" font-family="YuGothicUI-Regular, Yu Gothic UI"><tspan x="-45.816" y="0">あーしの秘密を</tspan><tspan y="0" font-family="SegoeUI, Segoe UI"></tspan><tspan x="-48.113" y="20">紹介してます！</tspan></text>
    <text id="あーしの秘密を_紹介してます_2" data-name="あーしの秘密を
紹介してます！" transform="matrix(0.998, 0.07, -0.07, 0.998, 292.852, 1764.636)" fill="#fff" font-size="16" font-family="YuGothicUI-Regular, Yu Gothic UI"><tspan x="-45.816" y="0">あーしの秘密を</tspan><tspan y="0" font-family="SegoeUI, Segoe UI"></tspan><tspan x="-48.113" y="20">紹介してます！</tspan></text>
  </g>
</svg>
