<svg xmlns="http://www.w3.org/2000/svg" width="321.102" height="62.842" viewBox="0 0 321.102 62.842">
  <g id="intro_middle_button" transform="translate(-522 -1186.98)">
    <g id="Union_45" data-name="Union 45" transform="translate(522 1186.98)" fill="#fff">
      <path d="M 160.5510101318359 60.42937850952148 L 146.8129730224609 51.16550827026367 L 146.3061370849609 50.8237190246582 L 145.6948089599609 50.8237190246582 L 26.41138458251953 50.8237190246582 C 23.1148853302002 50.8237190246582 19.91805267333984 50.17855072021484 16.90975952148438 48.90613555908203 C 14.00309371948242 47.67671966552734 11.39226055145264 45.916259765625 9.149760246276855 43.67367553710938 C 6.907259941101074 41.43113327026367 5.146843433380127 38.82025909423828 3.917468547821045 35.91359329223633 C 2.645135164260864 32.90534210205078 2.000010013580322 29.7086353302002 2.000010013580322 26.41230201721191 C 2.000010013580322 23.1157169342041 2.645135164260864 19.91884231567383 3.917510032653809 16.91046714782715 C 5.146884918212891 14.00367641448975 6.907259941101074 11.3927173614502 9.149760246276855 9.150134086608887 C 11.39226055145264 6.907509326934814 14.00309371948242 5.147051334381104 16.90975952148438 3.917592763900757 C 19.91805267333984 2.64517617225647 23.11484336853027 2.000009536743164 26.41138458251953 2.000009536743164 L 294.6897277832031 2.000009536743164 C 297.9862670898438 2.000009536743164 301.1831359863281 2.64517617225647 304.1914978027344 3.9176344871521 C 307.0982971191406 5.147051334381104 309.709228515625 6.907551288604736 311.9518432617188 9.150176048278809 C 314.1944580078125 11.39280128479004 315.9549560546875 14.00371742248535 317.1843872070312 16.91050910949707 C 318.4568481445312 19.91888427734375 319.1020202636719 23.11575889587402 319.1020202636719 26.41230201721191 C 319.1020202636719 29.7086353302002 318.4568481445312 32.90530014038086 317.1844177246094 35.91355133056641 C 315.9549560546875 38.82021713256836 314.1944580078125 41.43109130859375 311.9518737792969 43.67363357543945 C 309.709228515625 45.91621780395508 307.0982666015625 47.67667770385742 304.1914978027344 48.90613555908203 C 301.1831359863281 50.17855072021484 297.9862670898438 50.8237190246582 294.6897277832031 50.8237190246582 L 175.4072113037109 50.8237190246582 L 174.7958831787109 50.8237190246582 L 174.2890472412109 51.16550827026367 L 160.5510101318359 60.42937850952148 Z" stroke="none"/>
      <path d="M 160.5510406494141 58.01715087890625 L 174.1845550537109 48.82371139526367 L 294.689697265625 48.82371139526367 C 297.7171020507812 48.82371139526367 300.6518859863281 48.23170852661133 303.4124145507812 47.06412124633789 C 306.0807800292969 45.93548202514648 308.4780578613281 44.3189811706543 310.5376586914062 42.25939178466797 C 312.5972290039062 40.19989395141602 314.2137756347656 37.80271148681641 315.3424072265625 35.13443756103516 C 316.510009765625 32.37407302856445 317.1020202636719 29.43948364257812 317.1020202636719 26.41230201721191 C 317.1020202636719 23.38489151000977 316.510009765625 20.45011901855469 315.3423767089844 17.68961906433105 C 314.2137756347656 15.02125549316406 312.5972290039062 12.62398338317871 310.5376586914062 10.56439208984375 C 308.4780578613281 8.504800796508789 306.0807800292969 6.888210296630859 303.4124145507812 5.759619235992432 C 300.6518859863281 4.591982841491699 297.7171325683594 3.999983072280884 294.689697265625 3.999983072280884 L 26.41141891479492 3.999983072280884 C 23.38401031494141 3.999983072280884 20.44932746887207 4.591982841491699 17.68887329101562 5.759573936462402 C 15.02064609527588 6.888210296630859 12.62346458435059 8.50471019744873 10.56400966644287 10.56430149078369 C 8.504509925842285 12.62389183044434 6.888055801391602 15.021164894104 5.759510040283203 17.68952751159668 C 4.592010021209717 20.4500732421875 4.000010013580322 23.38484573364258 4.000010013580322 26.41230201721191 C 4.000010013580322 29.43952751159668 4.592010021209717 32.37411880493164 5.759510040283203 35.13452911376953 C 6.888055801391602 37.80280303955078 8.504509925842285 40.19998168945312 10.56396484375 42.25948333740234 C 12.62346458435059 44.31902694702148 15.02060127258301 45.93552780151367 17.68887329101562 47.06412124633789 C 20.44932746887207 48.23170852661133 23.38401031494141 48.82371139526367 26.41141891479492 48.82371139526367 L 146.9174194335938 48.82371139526367 L 160.5510406494141 58.01715087890625 M 160.5510101318359 62.84161758422852 L 145.6947784423828 52.82371139526367 L 26.41141891479492 52.82371139526367 C 11.82419204711914 52.82371139526367 1.013183555187425e-05 40.99861907958984 1.013183555187425e-05 26.41230201721191 C 1.013183555187425e-05 11.82511901855469 11.82419204711914 -1.701909786788747e-05 26.41141891479492 -1.701909786788747e-05 L 294.689697265625 -1.701909786788747e-05 C 309.2769165039062 -1.701909786788747e-05 321.1020202636719 11.82511901855469 321.1020202636719 26.41230201721191 C 321.1020202636719 40.99861907958984 309.2769165039062 52.82371139526367 294.689697265625 52.82371139526367 L 175.4071960449219 52.82371139526367 L 160.5510101318359 62.84161758422852 Z" stroke="none" fill="#6868fc"/>
    </g>
    <text id="埼玉バーチャル観光大使" transform="translate(557 1221.998)" fill="#5d3d7e" font-size="23" font-family="YuGothicUI-Regular, Yu Gothic UI"><tspan x="0" y="0">埼玉バーチャル観光大使</tspan></text>
  </g>
</svg>
