<svg xmlns="http://www.w3.org/2000/svg" width="63.746" height="57.526" viewBox="0 0 63.746 57.526">
  <g id="star_group_card1" transform="translate(-1247.227 -2576.473)">
    <g id="Group_77096" data-name="Group 77096">
      <g id="星アイコン6" transform="translate(1247.227 2607.469) rotate(-22)">
        <path id="Path_24199" data-name="Path 24199" d="M29.865,10.833a1.585,1.585,0,0,0-1.508-1.1h-9.1L16.479,1.1a1.584,1.584,0,0,0-3.016,0L10.69,9.734h-9.1a1.584,1.584,0,0,0-.924,2.871l7.383,5.3L5.2,26.534a1.584,1.584,0,0,0,2.441,1.774l7.328-5.37,7.328,5.37a1.585,1.585,0,0,0,2.442-1.774L21.9,17.906l7.383-5.3A1.584,1.584,0,0,0,29.865,10.833Z" transform="translate(0)" fill="#fff"/>
      </g>
      <g id="星アイコン6-2" data-name="星アイコン6" transform="translate(1290.81 2582.351) rotate(-22)">
        <path id="Path_24199-2" data-name="Path 24199" d="M15.649,5.676a.831.831,0,0,0-.79-.576H10.088L8.635.576a.83.83,0,0,0-1.581,0L5.6,5.1H.83A.83.83,0,0,0,.346,6.6L4.215,9.382,2.726,13.9A.83.83,0,0,0,4,14.833l3.84-2.814,3.84,2.814a.83.83,0,0,0,1.279-.93l-1.49-4.521L15.343,6.6A.83.83,0,0,0,15.649,5.676Z" transform="translate(0)" fill="#fff"/>
      </g>
    </g>
  </g>
</svg>
