<svg xmlns="http://www.w3.org/2000/svg" width="154.267" height="99.272" viewBox="0 0 154.267 99.272">
  <g id="star_group_banner1" transform="translate(-393.733 -487.073)">
    <g id="星アイコン6" transform="translate(393.733 475.726)">
      <path id="Path_24199" data-name="Path 24199" d="M30.457,22.394a1.617,1.617,0,0,0-1.538-1.121H19.633l-2.828-8.8a1.615,1.615,0,0,0-3.076,0l-2.828,8.8H1.616A1.615,1.615,0,0,0,.674,24.2L8.2,29.607l-2.9,8.8a1.616,1.616,0,0,0,2.489,1.809l7.473-5.476,7.473,5.476a1.616,1.616,0,0,0,2.49-1.809l-2.9-8.8L29.861,24.2A1.615,1.615,0,0,0,30.457,22.394Z" transform="translate(0)" fill="#8ee7ff"/>
    </g>
    <g id="星アイコン6-2" data-name="星アイコン6" transform="translate(423.994 539.601) rotate(-31)">
      <path id="Path_24199-2" data-name="Path 24199" d="M45.075,27.7A2.393,2.393,0,0,0,42.8,26.038H29.057L24.871,13.007a2.391,2.391,0,0,0-4.553,0L16.134,26.038H2.392A2.391,2.391,0,0,0,1,30.371l11.143,8L7.851,51.394a2.391,2.391,0,0,0,3.684,2.678l11.06-8.1,11.06,8.1a2.392,2.392,0,0,0,3.685-2.678L33.05,38.372l11.143-8A2.39,2.39,0,0,0,45.075,27.7Z" transform="translate(0 0)" fill="#fd9ae1"/>
    </g>
    <g id="星アイコン6-3" data-name="星アイコン6" transform="translate(519.591 525.521) rotate(-22)">
      <path id="Path_24199-3" data-name="Path 24199" d="M18.75,18.148a1,1,0,0,0-.947-.69H12.087l-1.741-5.42a.994.994,0,0,0-1.894,0l-1.741,5.42H1a.994.994,0,0,0-.58,1.8L5.05,22.588,3.266,28A.995.995,0,0,0,4.8,29.119l4.6-3.371L14,29.119A.995.995,0,0,0,15.532,28l-1.785-5.417,4.635-3.328A.994.994,0,0,0,18.75,18.148Z" transform="translate(0)" fill="#fff"/>
    </g>
  </g>
</svg>
