<svg id="star_group_card5" xmlns="http://www.w3.org/2000/svg" width="48.637" height="46.481" viewBox="0 0 48.637 46.481">
  <path id="Path_24199" data-name="Path 24199" d="M48.514,28.944a2.575,2.575,0,0,0-2.45-1.785H31.274l-4.5-14.025a2.573,2.573,0,0,0-4.9,0l-4.5,14.025H2.574a2.573,2.573,0,0,0-1.5,4.664l11.993,8.611L8.45,54.449a2.574,2.574,0,0,0,3.965,2.882l11.9-8.723,11.9,8.723a2.574,2.574,0,0,0,3.966-2.882L35.572,40.434l11.993-8.611A2.573,2.573,0,0,0,48.514,28.944Z" transform="translate(0 -11.347)" fill="#fff"/>
</svg>
