<svg xmlns="http://www.w3.org/2000/svg" width="38.718" height="53.387" viewBox="0 0 38.718 53.387">
  <g id="Group_77098" data-name="Group 77098" transform="translate(-15.845 -2393.411)">
    <g id="星アイコン6" transform="translate(15.845 2425.646) rotate(-22)">
      <path id="Path_24199" data-name="Path 24199" d="M23.811,8.637a1.264,1.264,0,0,0-1.2-.876H15.349L13.138.877a1.263,1.263,0,0,0-2.4,0L8.523,7.761H1.263A1.263,1.263,0,0,0,.527,10.05l5.886,4.226L4.147,21.155A1.263,1.263,0,0,0,6.093,22.57l5.843-4.281,5.843,4.281a1.264,1.264,0,0,0,1.947-1.415l-2.266-6.879,5.886-4.226A1.263,1.263,0,0,0,23.811,8.637Z" transform="translate(0 0)" fill="#fff"/>
    </g>
    <path id="Path_24199-2" data-name="Path 24199" d="M12.477,4.526a.662.662,0,0,0-.63-.459h-3.8L6.884.459a.662.662,0,0,0-1.26,0L4.466,4.067H.662a.662.662,0,0,0-.386,1.2L3.36,7.48l-1.187,3.6a.662.662,0,0,0,1.02.741L6.254,9.583l3.061,2.243a.662.662,0,0,0,1.02-.741L9.148,7.48l3.084-2.214A.662.662,0,0,0,12.477,4.526Z" transform="translate(38.487 2398.097) rotate(-22)" fill="#fff"/>
  </g>
</svg>
