<svg xmlns="http://www.w3.org/2000/svg" width="78.483" height="41.608" viewBox="0 0 78.483 41.608">
  <g id="star_group_banner2" transform="translate(-497.855 -122.372)">
    <g id="星アイコン6" transform="translate(541.884 123.566) rotate(-31)">
      <path id="Path_24199" data-name="Path 24199" d="M21.148,19.018a1.123,1.123,0,0,0-1.068-.778H13.633l-1.964-6.114a1.122,1.122,0,0,0-2.136,0L7.57,18.24H1.122a1.122,1.122,0,0,0-.654,2.033L5.7,24.026l-2.012,6.11a1.122,1.122,0,0,0,1.728,1.256l5.189-3.8,5.189,3.8a1.122,1.122,0,0,0,1.729-1.256l-2.013-6.11,5.228-3.753A1.122,1.122,0,0,0,21.148,19.018Z" transform="translate(0 0)" fill="#fd9ae1"/>
    </g>
    <g id="星アイコン6-2" data-name="星アイコン6" transform="translate(497.854 123.452)">
      <path id="Path_24199-2" data-name="Path 24199" d="M30.457,22.394a1.617,1.617,0,0,0-1.538-1.121H19.633l-2.828-8.8a1.615,1.615,0,0,0-3.076,0l-2.828,8.8H1.616A1.615,1.615,0,0,0,.674,24.2L8.2,29.607l-2.9,8.8a1.616,1.616,0,0,0,2.489,1.809l7.473-5.476,7.473,5.476a1.616,1.616,0,0,0,2.49-1.809l-2.9-8.8L29.861,24.2A1.615,1.615,0,0,0,30.457,22.394Z" transform="translate(0)" fill="#f8f8e7"/>
    </g>
  </g>
</svg>
