<svg xmlns="http://www.w3.org/2000/svg" width="54.576" height="84.22" viewBox="0 0 54.576 84.22">
  <g id="star_group_banner6" transform="translate(-322.653 -422.047)">
    <g id="星アイコン6" transform="translate(321.6 431.323) rotate(-31)">
      <path id="Path_24199" data-name="Path 24199" d="M36.8,24.7a1.953,1.953,0,0,0-1.859-1.354H23.723L20.306,12.7a1.952,1.952,0,0,0-3.717,0L13.172,23.341H1.953A1.952,1.952,0,0,0,.815,26.879l9.1,6.532L6.41,44.042a1.952,1.952,0,0,0,3.008,2.186l9.03-6.617,9.03,6.617a1.953,1.953,0,0,0,3.009-2.186l-3.5-10.632,9.1-6.532A1.952,1.952,0,0,0,36.8,24.7Z" transform="translate(0 0)" fill="#c4f0fc"/>
    </g>
    <g id="星アイコン6-2" data-name="星アイコン6" transform="translate(322.652 474.921)">
      <path id="Path_24199-2" data-name="Path 24199" d="M20.875,18.919a1.108,1.108,0,0,0-1.054-.768H13.457l-1.938-6.035a1.107,1.107,0,0,0-2.108,0L7.472,18.151H1.108a1.107,1.107,0,0,0-.646,2.007l5.16,3.7L3.636,29.893a1.107,1.107,0,0,0,1.706,1.24l5.122-3.753,5.122,3.753a1.108,1.108,0,0,0,1.707-1.24l-1.987-6.031,5.16-3.7A1.107,1.107,0,0,0,20.875,18.919Z" transform="translate(0)" fill="#fff"/>
    </g>
  </g>
</svg>
