<svg xmlns="http://www.w3.org/2000/svg" width="24.158" height="23.697" viewBox="0 0 24.158 23.697">
  <g id="star_group_intro6" transform="translate(-4.251 -3.479) rotate(-22)">
    <path id="Path_24199" data-name="Path 24199" d="M18.75,18.148a1,1,0,0,0-.947-.69H12.087l-1.741-5.42a.994.994,0,0,0-1.894,0l-1.741,5.42H1a.994.994,0,0,0-.58,1.8L5.05,22.588,3.266,28A.995.995,0,0,0,4.8,29.119l4.6-3.371L14,29.119A.995.995,0,0,0,15.532,28l-1.785-5.417,4.635-3.328A.994.994,0,0,0,18.75,18.148Z" transform="translate(0)" fill="#d7ecff"/>
  </g>
</svg>
