<svg xmlns="http://www.w3.org/2000/svg" width="102.757" height="49.018" viewBox="0 0 102.757 49.018">
  <g id="star_group_banner4" transform="translate(-763.865 -537.327)">
    <g id="星アイコン6" transform="translate(836.087 525.98)">
      <path id="Path_24199" data-name="Path 24199" d="M30.457,22.394a1.617,1.617,0,0,0-1.538-1.121H19.633l-2.828-8.8a1.615,1.615,0,0,0-3.076,0l-2.828,8.8H1.616A1.615,1.615,0,0,0,.674,24.2L8.2,29.607l-2.9,8.8a1.616,1.616,0,0,0,2.489,1.809l7.473-5.476,7.473,5.476a1.616,1.616,0,0,0,2.49-1.809l-2.9-8.8L29.861,24.2A1.615,1.615,0,0,0,30.457,22.394Z" transform="translate(0)" fill="#c4f0fc"/>
    </g>
    <g id="星アイコン6-2" data-name="星アイコン6" transform="translate(763.864 555.161)">
      <path id="Path_24199-2" data-name="Path 24199" d="M20.7,18.857a1.1,1.1,0,0,0-1.046-.762H13.347l-1.922-5.986a1.1,1.1,0,0,0-2.091,0L7.411,18.1H1.1a1.1,1.1,0,0,0-.64,1.99L5.577,23.76l-1.97,5.981A1.1,1.1,0,0,0,5.3,30.972l5.08-3.723,5.08,3.723a1.1,1.1,0,0,0,1.693-1.23L15.181,23.76,20.3,20.085A1.1,1.1,0,0,0,20.7,18.857Z" transform="translate(0)" fill="#f8f8e7"/>
    </g>
  </g>
</svg>
