<svg xmlns="http://www.w3.org/2000/svg" width="224.989" height="97.597" viewBox="0 0 224.989 97.597">
  <g id="star_group_banner3" transform="translate(-726.633 -119.243)">
    <g id="星アイコン6" transform="translate(921.087 176.312)">
      <path id="Path_24199" data-name="Path 24199" d="M30.457,22.394a1.617,1.617,0,0,0-1.538-1.121H19.633l-2.828-8.8a1.615,1.615,0,0,0-3.076,0l-2.828,8.8H1.616A1.615,1.615,0,0,0,.674,24.2L8.2,29.607l-2.9,8.8a1.616,1.616,0,0,0,2.489,1.809l7.473-5.476,7.473,5.476a1.616,1.616,0,0,0,2.49-1.809l-2.9-8.8L29.861,24.2A1.615,1.615,0,0,0,30.457,22.394Z" transform="translate(0)" fill="#fd9ae1"/>
    </g>
    <path id="Path_24199-2" data-name="Path 24199" d="M20.875,18.919a1.108,1.108,0,0,0-1.054-.768H13.457l-1.938-6.035a1.107,1.107,0,0,0-2.108,0L7.472,18.151H1.108a1.107,1.107,0,0,0-.646,2.007l5.16,3.7L3.636,29.893a1.107,1.107,0,0,0,1.706,1.24l5.122-3.753,5.122,3.753a1.108,1.108,0,0,0,1.707-1.24l-1.987-6.031,5.16-3.7A1.107,1.107,0,0,0,20.875,18.919Z" transform="translate(836.087 144.921)" fill="#fff"/>
    <g id="星アイコン6-2" data-name="星アイコン6" transform="translate(720.788 132.792) rotate(-31)">
      <path id="Path_24199-3" data-name="Path 24199" d="M45.075,27.7A2.393,2.393,0,0,0,42.8,26.038H29.057L24.871,13.007a2.391,2.391,0,0,0-4.553,0L16.134,26.038H2.392A2.391,2.391,0,0,0,1,30.371l11.143,8L7.851,51.394a2.391,2.391,0,0,0,3.684,2.678l11.06-8.1,11.06,8.1a2.392,2.392,0,0,0,3.685-2.678L33.05,38.372l11.143-8A2.39,2.39,0,0,0,45.075,27.7Z" transform="translate(0 0)" fill="#c4f0fc"/>
    </g>
  </g>
</svg>
