<svg xmlns="http://www.w3.org/2000/svg" width="74.07" height="67.406" viewBox="0 0 74.07 67.406">
  <g id="star_group_intro1" transform="translate(-238.066 -1398.75)">
    <g id="星アイコン6" transform="translate(272.083 1416.532)">
      <path id="Path_24199" data-name="Path 24199" d="M39.951,25.838a2.121,2.121,0,0,0-2.018-1.47H25.754l-3.709-11.55a2.119,2.119,0,0,0-4.035,0L14.3,24.368H2.12A2.119,2.119,0,0,0,.884,28.209L10.76,35.3l-3.8,11.542a2.119,2.119,0,0,0,3.265,2.373l9.8-7.183,9.8,7.183A2.12,2.12,0,0,0,33.1,46.841L29.293,35.3l9.876-7.091A2.119,2.119,0,0,0,39.951,25.838Z" transform="translate(0)" fill="#fef194"/>
    </g>
    <g id="星アイコン6-2" data-name="星アイコン6" transform="translate(238.065 1387.403)">
      <path id="Path_24199-2" data-name="Path 24199" d="M30.4,22.375a1.614,1.614,0,0,0-1.536-1.119H19.6l-2.823-8.789a1.613,1.613,0,0,0-3.071,0l-2.823,8.789H1.614a1.613,1.613,0,0,0-.94,2.923l7.516,5.4L5.3,38.358a1.613,1.613,0,0,0,2.485,1.806L15.24,34.7l7.46,5.466a1.613,1.613,0,0,0,2.486-1.806l-2.894-8.783,7.516-5.4A1.612,1.612,0,0,0,30.4,22.375Z" transform="translate(0)" fill="#d7ecff"/>
    </g>
  </g>
</svg>
