<svg xmlns="http://www.w3.org/2000/svg" width="64.662" height="61.796" viewBox="0 0 64.662 61.796">
  <g id="star_group_intro2" transform="translate(0 -11.347)">
    <path id="Path_24199" data-name="Path 24199" d="M64.5,34.742a3.424,3.424,0,0,0-3.258-2.374H41.577L35.589,13.722a3.421,3.421,0,0,0-6.514,0L23.086,32.368H3.423a3.421,3.421,0,0,0-1.995,6.2L17.372,50.017,11.234,68.65a3.422,3.422,0,0,0,5.272,3.832l15.826-11.6,15.826,11.6A3.423,3.423,0,0,0,53.43,68.65L47.291,50.017,63.235,38.569A3.421,3.421,0,0,0,64.5,34.742Z" transform="translate(0)" fill="#fdb6e6"/>
  </g>
</svg>
