<svg xmlns="http://www.w3.org/2000/svg" width="30.534" height="29.181" viewBox="0 0 30.534 29.181">
  <g id="star_group_intro5" transform="translate(0 -11.347)">
    <path id="Path_24199" data-name="Path 24199" d="M30.457,22.394a1.617,1.617,0,0,0-1.538-1.121H19.633l-2.828-8.8a1.615,1.615,0,0,0-3.076,0l-2.828,8.8H1.616A1.615,1.615,0,0,0,.674,24.2L8.2,29.607l-2.9,8.8a1.616,1.616,0,0,0,2.489,1.809l7.473-5.476,7.473,5.476a1.616,1.616,0,0,0,2.49-1.809l-2.9-8.8L29.861,24.2A1.615,1.615,0,0,0,30.457,22.394Z" transform="translate(0)" fill="#fdb6e7"/>
  </g>
</svg>
