<svg xmlns="http://www.w3.org/2000/svg" width="38.48" height="37.747" viewBox="0 0 38.48 37.747">
  <g id="star_group_card4" transform="translate(0 11.216) rotate(-22)">
    <path id="Path_24199" data-name="Path 24199" d="M29.865,10.833a1.585,1.585,0,0,0-1.508-1.1h-9.1L16.479,1.1a1.584,1.584,0,0,0-3.016,0L10.69,9.734h-9.1a1.584,1.584,0,0,0-.924,2.871l7.383,5.3L5.2,26.534a1.584,1.584,0,0,0,2.441,1.774l7.328-5.37,7.328,5.37a1.585,1.585,0,0,0,2.442-1.774L21.9,17.906l7.383-5.3A1.584,1.584,0,0,0,29.865,10.833Z" transform="translate(0)" fill="#fff"/>
  </g>
</svg>
