<svg xmlns="http://www.w3.org/2000/svg" width="98.132" height="52.878" viewBox="0 0 98.132 52.878">
  <g id="star_group_intro4" transform="translate(-219.199 -1105.616)">
    <g id="星アイコン6" transform="translate(219.198 1094.269)">
      <path id="Path_24199" data-name="Path 24199" d="M30.457,22.394a1.617,1.617,0,0,0-1.538-1.121H19.633l-2.828-8.8a1.615,1.615,0,0,0-3.076,0l-2.828,8.8H1.616A1.615,1.615,0,0,0,.674,24.2L8.2,29.607l-2.9,8.8a1.616,1.616,0,0,0,2.489,1.809l7.473-5.476,7.473,5.476a1.616,1.616,0,0,0,2.49-1.809l-2.9-8.8L29.861,24.2A1.615,1.615,0,0,0,30.457,22.394Z" transform="translate(0)" fill="#fff189"/>
    </g>
    <g id="星アイコン6-2" data-name="星アイコン6" transform="translate(288.922 1131.317) rotate(-22)">
      <path id="Path_24199-2" data-name="Path 24199" d="M18.75,18.148a1,1,0,0,0-.947-.69H12.087l-1.741-5.42a.994.994,0,0,0-1.894,0l-1.741,5.42H1a.994.994,0,0,0-.58,1.8L5.05,22.588,3.266,28A.995.995,0,0,0,4.8,29.119l4.6-3.371L14,29.119A.995.995,0,0,0,15.532,28l-1.785-5.417,4.635-3.328A.994.994,0,0,0,18.75,18.148Z" transform="translate(0)" fill="#fdb6e6"/>
    </g>
  </g>
</svg>
