<svg xmlns="http://www.w3.org/2000/svg" width="1367" height="1377.988" viewBox="0 0 1367 1377.988">
  <g id="Group_46943" data-name="Group 46943" transform="translate(-1422.907 -3380.866)" opacity="0.424">
    <g id="Group_46919" data-name="Group 46919" transform="translate(2789.407 3373.224) rotate(90)">
      <rect id="Rectangle_107" data-name="Rectangle 107" width="2" height="1369.264" transform="translate(15.866 2) rotate(-90)" fill="#fcfcfa" stroke="#ffd8d8" stroke-width="1"/>
      <rect id="Rectangle_206" data-name="Rectangle 206" width="2" height="1369.264" transform="translate(15.866 63.784) rotate(-90)" fill="#fcfcfa" stroke="#ffd8d8" stroke-width="1"/>
    </g>
    <g id="Group_46921" data-name="Group 46921" transform="translate(2666.407 3373.224) rotate(90)">
      <rect id="Rectangle_107-2" data-name="Rectangle 107" width="2" height="1369.264" transform="translate(15.164 2) rotate(-90)" fill="#fcfcfa" stroke="#ffd8d8" stroke-width="1"/>
      <rect id="Rectangle_206-2" data-name="Rectangle 206" width="2" height="1369.264" transform="translate(15.164 63.784) rotate(-90)" fill="#fcfcfa" stroke="#ffd8d8" stroke-width="1"/>
    </g>
    <g id="Group_46923" data-name="Group 46923" transform="translate(2552.641 3373.224) rotate(90)">
      <rect id="Rectangle_107-3" data-name="Rectangle 107" width="2" height="1369.264" transform="translate(14.462 2) rotate(-90)" fill="#fcfcfa" stroke="#ffd8d8" stroke-width="1"/>
      <rect id="Rectangle_206-3" data-name="Rectangle 206" width="2" height="1369.264" transform="translate(14.462 63.784) rotate(-90)" fill="#fcfcfa" stroke="#ffd8d8" stroke-width="1"/>
    </g>
    <g id="Group_46925" data-name="Group 46925" transform="translate(2434.258 3373.224) rotate(90)">
      <rect id="Rectangle_107-4" data-name="Rectangle 107" width="2" height="1369.264" transform="translate(13.759 2) rotate(-90)" fill="#fcfcfa" stroke="#ffd8d8" stroke-width="1"/>
      <rect id="Rectangle_206-4" data-name="Rectangle 206" width="2" height="1369.264" transform="translate(13.759 63.784) rotate(-90)" fill="#fcfcfa" stroke="#ffd8d8" stroke-width="1"/>
    </g>
    <g id="Group_46927" data-name="Group 46927" transform="translate(2315.874 3373.224) rotate(90)">
      <rect id="Rectangle_107-5" data-name="Rectangle 107" width="2" height="1369.264" transform="translate(13.057 2) rotate(-90)" fill="#fcfcfa" stroke="#ffd8d8" stroke-width="1"/>
      <rect id="Rectangle_206-5" data-name="Rectangle 206" width="2" height="1369.264" transform="translate(13.057 63.784) rotate(-90)" fill="#fcfcfa" stroke="#ffd8d8" stroke-width="1"/>
    </g>
    <g id="Group_46929" data-name="Group 46929" transform="translate(2197.491 3373.224) rotate(90)">
      <rect id="Rectangle_107-6" data-name="Rectangle 107" width="2" height="1369.264" transform="translate(12.355 2) rotate(-90)" fill="#fcfcfa" stroke="#ffd8d8" stroke-width="1"/>
      <rect id="Rectangle_206-6" data-name="Rectangle 206" width="2" height="1369.264" transform="translate(12.355 63.784) rotate(-90)" fill="#fcfcfa" stroke="#ffd8d8" stroke-width="1"/>
    </g>
    <g id="Group_46931" data-name="Group 46931" transform="translate(2079.108 3373.224) rotate(90)">
      <rect id="Rectangle_107-7" data-name="Rectangle 107" width="2" height="1369.264" transform="translate(11.653 2) rotate(-90)" fill="#fcfcfa" stroke="#ffd8d8" stroke-width="1"/>
      <rect id="Rectangle_206-7" data-name="Rectangle 206" width="2" height="1369.264" transform="translate(11.653 63.784) rotate(-90)" fill="#fcfcfa" stroke="#ffd8d8" stroke-width="1"/>
    </g>
    <g id="Group_46933" data-name="Group 46933" transform="translate(1960.724 3373.224) rotate(90)">
      <rect id="Rectangle_107-8" data-name="Rectangle 107" width="2" height="1369.264" transform="translate(10.951 2) rotate(-90)" fill="#fcfcfa" stroke="#ffd8d8" stroke-width="1"/>
      <rect id="Rectangle_206-8" data-name="Rectangle 206" width="2" height="1369.264" transform="translate(10.951 63.784) rotate(-90)" fill="#fcfcfa" stroke="#ffd8d8" stroke-width="1"/>
    </g>
    <g id="Group_46935" data-name="Group 46935" transform="translate(1842.341 3373.224) rotate(90)">
      <rect id="Rectangle_107-9" data-name="Rectangle 107" width="2" height="1369.264" transform="translate(10.249 2) rotate(-90)" fill="#fcfcfa" stroke="#ffd8d8" stroke-width="1"/>
      <rect id="Rectangle_206-9" data-name="Rectangle 206" width="2" height="1369.264" transform="translate(10.249 63.784) rotate(-90)" fill="#fcfcfa" stroke="#ffd8d8" stroke-width="1"/>
    </g>
    <g id="Group_46937" data-name="Group 46937" transform="translate(1723.958 3373.224) rotate(90)">
      <rect id="Rectangle_107-10" data-name="Rectangle 107" width="2" height="1369.264" transform="translate(9.546 2) rotate(-90)" fill="#fcfcfa" stroke="#ffd8d8" stroke-width="1"/>
      <rect id="Rectangle_206-10" data-name="Rectangle 206" width="2" height="1369.264" transform="translate(9.546 63.784) rotate(-90)" fill="#fcfcfa" stroke="#ffd8d8" stroke-width="1"/>
    </g>
    <g id="Group_46939" data-name="Group 46939" transform="translate(1610.191 3373.224) rotate(90)">
      <rect id="Rectangle_107-11" data-name="Rectangle 107" width="2" height="1369.264" transform="translate(8.844 2) rotate(-90)" fill="#fcfcfa" stroke="#ffd8d8" stroke-width="1"/>
      <rect id="Rectangle_206-11" data-name="Rectangle 206" width="2" height="1369.264" transform="translate(8.844 63.784) rotate(-90)" fill="#fcfcfa" stroke="#ffd8d8" stroke-width="1"/>
    </g>
    <g id="Group_46941" data-name="Group 46941" transform="translate(1487.191 3373.224) rotate(90)">
      <rect id="Rectangle_107-12" data-name="Rectangle 107" width="2" height="1369.264" transform="translate(8.142 2) rotate(-90)" fill="#fcfcfa" stroke="#ffd8d8" stroke-width="1"/>
      <rect id="Rectangle_206-12" data-name="Rectangle 206" width="2" height="1369.264" transform="translate(8.142 63.784) rotate(-90)" fill="#fcfcfa" stroke="#ffd8d8" stroke-width="1"/>
    </g>
  </g>
</svg>
