<svg id="リンクのフリーアイコン1" xmlns="http://www.w3.org/2000/svg" width="29.951" height="29.951" viewBox="0 0 29.951 29.951">
  <path id="Path_104143" data-name="Path 104143" d="M215.329,6.621A8.174,8.174,0,0,0,201.517,2.4l-3.876,3.876A2,2,0,0,0,200.472,9.1l3.875-3.877a4.177,4.177,0,1,1,5.906,5.907l-3.876,3.875a2,2,0,1,0,2.83,2.831l3.876-3.876a8.17,8.17,0,0,0,2.246-7.343Z" transform="translate(-185.527 -0.003)" fill="#8780ff"/>
  <path id="Path_104144" data-name="Path 104144" d="M15.006,206.4l-3.876,3.876a4.172,4.172,0,0,1-3.752,1.147,4.156,4.156,0,0,1-2.153-1.147,4.172,4.172,0,0,1-.918-1.381,4.168,4.168,0,0,1,.918-4.526L9.1,200.495a2,2,0,0,0-2.831-2.829L2.394,201.54a8.179,8.179,0,1,0,11.566,11.566l3.876-3.876a2,2,0,0,0-2.83-2.829Z" transform="translate(0.001 -185.551)" fill="#8780ff"/>
  <path id="Path_104145" data-name="Path 104145" d="M170.23,160.144a2,2,0,0,0-2.83,0l-7.284,7.283a2,2,0,1,0,2.831,2.829l7.283-7.283A2,2,0,0,0,170.23,160.144Z" transform="translate(-150.199 -150.225)" fill="#8780ff"/>
</svg>
